<svg data-v-423bf9ae="" xmlns="http://www.w3.org/2000/svg" viewBox="0 0 575.3073562175133 60" class="font"><!----><!----><!----><g data-v-423bf9ae="" id="d30500b6-2941-4100-b664-8a73e4d10209" fill="black" transform="matrix(4.4977510729908285,0,0,4.4977510729908285,-4.7676203399292945,-6.746626609486242)"><path d="M1.06 12.09L1.06 9.18L1.06 7.98L1.06 7.98Q1.18 6.45 1.70 5.74L1.70 5.74L1.70 5.74Q2.13 5.09 2.83 4.71L2.83 4.71L2.83 4.71Q3.29 4.42 4.14 4.40L4.14 4.40L4.14 4.40Q4.68 4.40 5.24 4.60L5.24 4.60L5.24 4.60Q5.80 4.81 6.11 5.15L6.11 5.15L6.11 5.15Q6.42 5.49 6.73 6.17L6.73 6.17L6.73 6.17Q6.90 5.74 7.45 5.15L7.45 5.15L7.45 5.15Q7.72 4.92 8.14 4.70L8.14 4.70L8.14 4.70Q8.43 4.52 9.47 4.40L9.47 4.40L9.47 4.40Q10.25 4.40 10.97 4.79L10.97 4.79L10.97 4.79Q11.69 5.17 11.98 5.88L11.98 5.88L11.98 5.88Q12.27 6.59 12.27 7.99L12.27 7.99L12.27 12.09L11.29 12.09L11.29 7.99L11.29 7.99Q11.29 6.79 11.12 6.34L11.12 6.34L11.12 6.34Q10.94 5.89 10.53 5.61L10.53 5.61L10.53 5.61Q10.11 5.33 9.52 5.33L9.52 5.33L9.52 5.33Q8.42 5.41 7.63 6.41L7.63 6.41L7.63 6.41Q7.32 6.83 7.16 8.29L7.16 8.29L7.16 12.09L6.20 12.09L6.20 8.24L6.20 8.24Q6.20 6.89 5.90 6.40L5.90 6.40L5.90 6.40Q5.60 5.91 5.18 5.62L5.18 5.62L5.18 5.62Q4.76 5.33 4.14 5.33L4.14 5.33L4.14 5.33Q3.47 5.33 2.99 5.67L2.99 5.67L2.99 5.67Q2.51 6.02 2.24 6.70L2.24 6.70L2.24 6.70Q1.96 7.38 2.02 8.91L2.02 8.91L2.02 12.09L1.06 12.09ZM20.60 9.42L20.60 9.42L21.41 9.85L21.41 9.85Q21.02 10.64 20.49 11.12L20.49 11.12L20.49 11.12Q19.97 11.59 19.31 11.84L19.31 11.84L19.31 11.84Q18.66 12.09 17.83 12.09L17.83 12.09L17.83 12.09Q16.00 12.09 14.96 10.89L14.96 10.89L14.96 10.89Q13.93 9.69 13.93 8.18L13.93 8.18L13.93 8.18Q13.93 6.75 14.81 5.64L14.81 5.64L14.81 5.64Q15.91 4.22 17.78 4.22L17.78 4.22L17.78 4.22Q19.69 4.22 20.84 5.67L20.84 5.67L20.84 5.67Q21.65 6.70 21.66 8.23L21.66 8.23L14.92 8.23L14.92 8.23Q14.95 9.54 15.76 10.38L15.76 10.38L15.76 10.38Q16.56 11.22 17.75 11.22L17.75 11.22L17.75 11.22Q18.32 11.22 18.86 11.02L18.86 11.02L18.86 11.02Q19.40 10.81 19.78 10.49L19.78 10.49L19.78 10.49Q20.16 10.16 20.60 9.42ZM15.03 7.40L20.60 7.40L20.60 7.40Q20.41 6.63 20.04 6.17L20.04 6.17L20.04 6.17Q19.67 5.71 19.07 5.42L19.07 5.42L19.07 5.42Q18.46 5.14 17.79 5.14L17.79 5.14L17.79 5.14Q16.69 5.14 15.89 5.85L15.89 5.85L15.89 5.85Q15.32 6.37 15.03 7.40L15.03 7.40ZM26.15 11.03L26.15 11.03L26.15 11.03Q25.44 11.41 24.76 11.09L24.76 11.09L24.76 11.09Q23.93 10.45 23.97 9.28L23.97 9.28L23.97 6.10L25.74 6.10L25.74 5.28L23.96 5.28L23.96 1.65L22.99 1.65L22.99 9.44L22.99 9.44Q22.98 10.26 23.37 10.94L23.37 10.94L23.37 10.94Q24.01 12.03 25.12 12.09L25.12 12.09L25.12 12.09Q25.70 12.11 26.46 11.83L26.46 11.83L26.46 11.83Q26.34 11.54 26.15 11.03ZM34.30 9.42L34.30 9.42L35.11 9.85L35.11 9.85Q34.72 10.64 34.19 11.12L34.19 11.12L34.19 11.12Q33.67 11.59 33.01 11.84L33.01 11.84L33.01 11.84Q32.35 12.09 31.53 12.09L31.53 12.09L31.53 12.09Q29.70 12.09 28.66 10.89L28.66 10.89L28.66 10.89Q27.63 9.69 27.63 8.18L27.63 8.18L27.63 8.18Q27.63 6.75 28.51 5.64L28.51 5.64L28.51 5.64Q29.61 4.22 31.48 4.22L31.48 4.22L31.48 4.22Q33.39 4.22 34.54 5.67L34.54 5.67L34.54 5.67Q35.35 6.70 35.36 8.23L35.36 8.23L28.62 8.23L28.62 8.23Q28.65 9.54 29.46 10.38L29.46 10.38L29.46 10.38Q30.26 11.22 31.45 11.22L31.45 11.22L31.45 11.22Q32.02 11.22 32.56 11.02L32.56 11.02L32.56 11.02Q33.10 10.81 33.48 10.49L33.48 10.49L33.48 10.49Q33.86 10.16 34.30 9.42ZM28.72 7.40L34.30 7.40L34.30 7.40Q34.11 6.63 33.74 6.17L33.74 6.17L33.74 6.17Q33.37 5.71 32.76 5.42L32.76 5.42L32.76 5.42Q32.16 5.14 31.49 5.14L31.49 5.14L31.49 5.14Q30.39 5.14 29.59 5.85L29.59 5.85L29.59 5.85Q29.02 6.37 28.72 7.40L28.72 7.40ZM40.69 4.22L40.69 4.22L40.69 4.22Q42.42 4.22 43.57 5.47L43.57 5.47L43.57 5.47Q44.60 6.62 44.60 8.18L44.60 8.18L44.60 8.18Q44.60 9.75 43.50 10.92L43.50 10.92L43.50 10.92Q42.41 12.09 40.69 12.09L40.69 12.09L40.69 12.09Q38.97 12.09 37.88 10.92L37.88 10.92L37.88 10.92Q36.79 9.75 36.79 8.18L36.79 8.18L36.79 8.18Q36.79 6.62 37.82 5.48L37.82 5.48L37.82 5.48Q38.96 4.22 40.69 4.22ZM40.69 5.16L40.69 5.16L40.69 5.16Q39.50 5.16 38.64 6.05L38.64 6.05L38.64 6.05Q37.78 6.94 37.78 8.20L37.78 8.20L37.78 8.20Q37.78 9.01 38.17 9.72L38.17 9.72L38.17 9.72Q38.56 10.42 39.23 10.80L39.23 10.80L39.23 10.80Q39.90 11.18 40.69 11.18L40.69 11.18L40.69 11.18Q41.50 11.18 42.17 10.80L42.17 10.80L42.17 10.80Q42.83 10.42 43.22 9.72L43.22 9.72L43.22 9.72Q43.61 9.01 43.61 8.20L43.61 8.20L43.61 8.20Q43.61 6.94 42.75 6.05L42.75 6.05L42.75 6.05Q41.89 5.16 40.69 5.16ZM46.01 12.07L46.01 8.65L46.01 7.75L46.01 7.75Q46.12 7.08 46.32 6.65L46.32 6.65L46.32 6.65Q46.80 5.48 47.61 4.93L47.61 4.93L47.61 4.93Q48.41 4.38 48.95 4.38L48.95 4.38L48.95 4.38Q49.34 4.38 49.79 4.64L49.79 4.64L49.29 5.45L49.29 5.45Q48.66 5.22 48.03 5.82L48.03 5.82L48.03 5.82Q47.41 6.43 47.17 7.15L47.17 7.15L47.17 7.15Q46.99 7.79 46.99 9.54L46.99 9.54L46.99 12.07L46.01 12.07ZM53.90 4.22L53.90 4.22L53.90 4.22Q55.63 4.22 56.77 5.47L56.77 5.47L56.77 5.47Q57.80 6.62 57.80 8.18L57.80 8.18L57.80 8.18Q57.80 9.75 56.71 10.92L56.71 10.92L56.71 10.92Q55.62 12.09 53.90 12.09L53.90 12.09L53.90 12.09Q52.18 12.09 51.09 10.92L51.09 10.92L51.09 10.92Q50.00 9.75 50.00 8.18L50.00 8.18L50.00 8.18Q50.00 6.62 51.03 5.48L51.03 5.48L51.03 5.48Q52.17 4.22 53.90 4.22ZM53.90 5.16L53.90 5.16L53.90 5.16Q52.71 5.16 51.84 6.05L51.84 6.05L51.84 6.05Q50.98 6.94 50.98 8.20L50.98 8.20L50.98 8.20Q50.98 9.01 51.38 9.72L51.38 9.72L51.38 9.72Q51.77 10.42 52.44 10.80L52.44 10.80L52.44 10.80Q53.11 11.18 53.90 11.18L53.90 11.18L53.90 11.18Q54.71 11.18 55.37 10.80L55.37 10.80L55.37 10.80Q56.04 10.42 56.43 9.72L56.43 9.72L56.43 9.72Q56.82 9.01 56.82 8.20L56.82 8.20L56.82 8.20Q56.82 6.94 55.96 6.05L55.96 6.05L55.96 6.05Q55.10 5.16 53.90 5.16ZM59.43 12.09L59.43 1.69L60.40 1.69L60.40 12.09L59.43 12.09ZM65.94 4.22L65.94 4.22L65.94 4.22Q67.67 4.22 68.81 5.47L68.81 5.47L68.81 5.47Q69.84 6.62 69.84 8.18L69.84 8.18L69.84 8.18Q69.84 9.75 68.75 10.92L68.75 10.92L68.75 10.92Q67.66 12.09 65.94 12.09L65.94 12.09L65.94 12.09Q64.22 12.09 63.13 10.92L63.13 10.92L63.13 10.92Q62.04 9.75 62.04 8.18L62.04 8.18L62.04 8.18Q62.04 6.62 63.07 5.48L63.07 5.48L63.07 5.48Q64.21 4.22 65.94 4.22ZM65.94 5.16L65.94 5.16L65.94 5.16Q64.74 5.16 63.88 6.05L63.88 6.05L63.88 6.05Q63.02 6.94 63.02 8.20L63.02 8.20L63.02 8.20Q63.02 9.01 63.41 9.72L63.41 9.72L63.41 9.72Q63.81 10.42 64.48 10.80L64.48 10.80L64.48 10.80Q65.15 11.18 65.94 11.18L65.94 11.18L65.94 11.18Q66.75 11.18 67.41 10.80L67.41 10.80L67.41 10.80Q68.08 10.42 68.47 9.72L68.47 9.72L68.47 9.72Q68.86 9.01 68.86 8.20L68.86 8.20L68.86 8.20Q68.86 6.94 68.00 6.05L68.00 6.05L68.00 6.05Q67.14 5.16 65.94 5.16ZM79.05 10.38L79.05 10.38L79.05 10.38Q79.05 11.96 78.77 12.69L78.77 12.69L78.77 12.69Q78.39 13.73 77.45 14.28L77.45 14.28L77.45 14.28Q76.51 14.84 75.20 14.84L75.20 14.84L75.20 14.84Q74.23 14.84 73.47 14.57L73.47 14.57L73.47 14.57Q72.70 14.29 72.21 13.84L72.21 13.84L72.21 13.84Q71.73 13.38 71.33 12.50L71.33 12.50L72.37 12.50L72.37 12.50Q72.80 13.24 73.48 13.60L73.48 13.60L73.48 13.60Q74.15 13.95 75.15 13.95L75.15 13.95L75.15 13.95Q76.14 13.95 76.82 13.58L76.82 13.58L76.82 13.58Q77.50 13.21 77.79 12.66L77.79 12.66L77.79 12.66Q78.07 12.11 78.07 10.86L78.07 10.86L78.07 10.48L78.07 10.48Q77.53 11.17 76.74 11.54L76.74 11.54L76.74 11.54Q75.95 11.91 75.08 11.91L75.08 11.91L75.08 11.91Q74.05 11.91 73.13 11.40L73.13 11.40L73.13 11.40Q72.22 10.88 71.73 10.01L71.73 10.01L71.73 10.01Q71.23 9.14 71.23 8.10L71.23 8.10L71.23 8.10Q71.23 7.06 71.75 6.16L71.75 6.16L71.75 6.16Q72.26 5.26 73.18 4.74L73.18 4.74L73.18 4.74Q74.09 4.22 75.10 4.22L75.10 4.22L75.10 4.22Q75.95 4.22 76.64 4.48L76.64 4.48L76.64 4.48Q77.22 4.69 78.01 5.29L78.01 5.29L78.01 5.29Q78.68 5.84 79.06 7.40L79.06 7.40L79.06 7.40Q79.05 7.61 79.05 10.38ZM75.22 5.15L75.22 5.15L75.22 5.15Q74.40 5.15 73.70 5.54L73.70 5.54L73.70 5.54Q73.00 5.94 72.60 6.64L72.60 6.64L72.60 6.64Q72.20 7.33 72.20 8.15L72.20 8.15L72.20 8.15Q72.20 9.39 73.03 10.19L73.03 10.19L73.03 10.19Q73.86 11.00 75.17 11.00L75.17 11.00L75.17 11.00Q76.51 11.00 77.31 10.20L77.31 10.20L77.31 10.20Q78.12 9.40 78.12 8.09L78.12 8.09L78.12 8.09Q78.12 7.25 77.75 6.58L77.75 6.58L77.75 6.58Q77.38 5.92 76.70 5.53L76.70 5.53L76.70 5.53Q76.02 5.15 75.22 5.15ZM81.44 1.50L81.44 1.50L81.44 1.50Q81.76 1.50 82.00 1.74L82.00 1.74L82.00 1.74Q82.24 1.97 82.24 2.30L82.24 2.30L82.24 2.30Q82.24 2.63 82.00 2.86L82.00 2.86L82.00 2.86Q81.76 3.10 81.44 3.10L81.44 3.10L81.44 3.10Q81.11 3.10 80.88 2.86L80.88 2.86L80.88 2.86Q80.64 2.63 80.64 2.30L80.64 2.30L80.64 2.30Q80.64 1.97 80.88 1.74L80.88 1.74L80.88 1.74Q81.11 1.50 81.44 1.50ZM80.96 12.09L80.96 4.59L81.92 4.59L81.92 12.09L80.96 12.09ZM91.19 5.97L91.19 5.97L90.43 6.45L90.43 6.45Q89.43 5.12 87.72 5.12L87.72 5.12L87.72 5.12Q86.34 5.12 85.44 6.00L85.44 6.00L85.44 6.00Q84.53 6.88 84.53 8.15L84.53 8.15L84.53 8.15Q84.53 8.97 84.95 9.70L84.95 9.70L84.95 9.70Q85.37 10.42 86.09 10.82L86.09 10.82L86.09 10.82Q86.82 11.22 87.72 11.22L87.72 11.22L87.72 11.22Q89.38 11.22 90.43 9.91L90.43 9.91L91.19 10.40L91.19 10.40Q90.65 11.21 89.75 11.65L89.75 11.65L89.75 11.65Q88.84 12.09 87.68 12.09L87.68 12.09L87.68 12.09Q85.91 12.09 84.73 10.96L84.73 10.96L84.73 10.96Q83.56 9.84 83.56 8.22L83.56 8.22L83.56 8.22Q83.56 7.13 84.11 6.20L84.11 6.20L84.11 6.20Q84.66 5.26 85.62 4.74L85.62 4.74L85.62 4.74Q86.57 4.22 87.76 4.22L87.76 4.22L87.76 4.22Q88.50 4.22 89.19 4.44L89.19 4.44L89.19 4.44Q89.89 4.67 90.37 5.03L90.37 5.03L90.37 5.03Q90.86 5.40 91.19 5.97ZM96.58 4.22L96.58 4.22L96.58 4.22Q98.31 4.22 99.45 5.47L99.45 5.47L99.45 5.47Q100.50 6.61 100.50 8.18L100.50 8.18L100.50 8.18Q100.52 12.07 100.50 12.13L100.50 12.13L100.50 12.13Q99.85 12.13 99.48 12.13L99.48 12.13L99.48 12.13Q99.48 12.08 99.48 10.42L99.48 10.42L99.48 10.42Q98.68 11.92 96.58 12.09L96.58 12.09L96.58 12.09Q94.86 12.09 93.77 10.92L93.77 10.92L93.77 10.92Q92.67 9.75 92.67 8.18L92.67 8.18L92.67 8.18Q92.67 6.62 93.71 5.48L93.71 5.48L93.71 5.48Q94.85 4.22 96.58 4.22ZM96.58 5.16L96.58 5.16L96.58 5.16Q95.38 5.16 94.52 6.05L94.52 6.05L94.52 6.05Q93.66 6.94 93.66 8.20L93.66 8.20L93.66 8.20Q93.66 9.01 94.10 9.76L94.10 9.76L94.10 9.76Q94.54 10.51 95.59 11.03L95.59 11.03L95.59 11.03Q98.23 11.62 99.35 8.63L99.35 8.63L99.35 8.63Q99.41 7.68 99.14 6.80L99.14 6.80L99.14 6.80Q98.95 6.41 98.62 6.05L98.62 6.05L98.62 6.05Q97.77 5.16 96.58 5.16ZM102.22 12.09L102.22 1.69L103.20 1.69L103.20 12.09L102.22 12.09ZM105.20 12.07L105.20 1.93L106.21 1.93L106.21 12.07L105.20 12.07ZM108.36 12.09L108.36 9.24L108.35 8.44L108.35 8.44Q108.33 7.85 108.40 7.44L108.40 7.44L108.40 7.44Q108.55 6.15 109.05 5.55L109.05 5.55L109.05 5.55Q109.55 5.02 110.06 4.74L110.06 4.74L110.06 4.74Q110.91 4.38 111.99 4.40L111.99 4.40L111.99 4.40Q112.84 4.40 113.56 4.82L113.56 4.82L113.56 4.82Q114.28 5.25 114.59 5.97L114.59 5.97L114.59 5.97Q114.90 6.69 114.90 8.23L114.90 8.23L114.90 12.09L113.94 12.09L113.94 8.51L113.94 8.51Q113.94 7.21 113.83 6.77L113.83 6.77L113.83 6.77Q113.66 6.03 113.16 5.72L113.16 5.72L113.16 5.72Q112.65 5.41 111.66 5.41L111.66 5.41L111.66 5.41Q110.78 5.41 110.10 5.91L110.10 5.91L110.10 5.91Q109.42 6.42 109.46 7.29L109.46 7.29L109.46 7.29Q109.33 7.85 109.33 9.34L109.33 9.34L109.33 12.09L108.36 12.09ZM119.70 2.73L119.70 2.73L119.70 2.73Q118.99 2.34 118.30 2.67L118.30 2.67L118.30 2.67Q117.69 2.99 117.51 4.48L117.51 4.48L117.51 5.23L119.29 5.23L119.29 6.06L117.50 6.06L117.50 12.10L116.53 12.10L116.53 4.31L116.53 4.31Q116.55 3.40 116.91 2.81L116.91 2.81L116.91 2.81Q117.46 1.67 118.66 1.63L118.66 1.63L118.66 1.63Q119.27 1.49 120.00 1.93L120.00 1.93L120.00 1.93Q119.88 2.21 119.70 2.73ZM125.06 4.22L125.06 4.22L125.06 4.22Q126.79 4.22 127.93 5.47L127.93 5.47L127.93 5.47Q128.97 6.62 128.97 8.18L128.97 8.18L128.97 8.18Q128.97 9.75 127.87 10.92L127.87 10.92L127.87 10.92Q126.78 12.09 125.06 12.09L125.06 12.09L125.06 12.09Q123.34 12.09 122.25 10.92L122.25 10.92L122.25 10.92Q121.16 9.75 121.16 8.18L121.16 8.18L121.16 8.18Q121.16 6.62 122.19 5.48L122.19 5.48L122.19 5.48Q123.33 4.22 125.06 4.22ZM125.06 5.16L125.06 5.16L125.06 5.16Q123.87 5.16 123.01 6.05L123.01 6.05L123.01 6.05Q122.14 6.94 122.14 8.20L122.14 8.20L122.14 8.20Q122.14 9.01 122.54 9.72L122.54 9.72L122.54 9.72Q122.93 10.42 123.60 10.80L123.60 10.80L123.60 10.80Q124.27 11.18 125.06 11.18L125.06 11.18L125.06 11.18Q125.87 11.18 126.54 10.80L126.54 10.80L126.54 10.80Q127.20 10.42 127.59 9.72L127.59 9.72L127.59 9.72Q127.98 9.01 127.98 8.20L127.98 8.20L127.98 8.20Q127.98 6.94 127.12 6.05L127.12 6.05L127.12 6.05Q126.26 5.16 125.06 5.16Z"></path></g><!----><!----></svg>